<svg width="831" height="192" viewBox="0 0 831 192" fill="none" xmlns="http://www.w3.org/2000/svg">
<path d="M196.121 130.25L197.621 129.8V173H183.521V68H196.421L197.471 79.25C199.871 75.85 203.171 72.95 207.371 70.55C211.671 68.15 216.871 66.95 222.971 66.95C229.571 66.95 235.421 68.55 240.521 71.75C245.621 74.95 249.621 79.45 252.521 85.25C255.521 90.95 257.021 97.7 257.021 105.5C257.021 113.2 255.571 119.95 252.671 125.75C249.871 131.55 245.921 136.05 240.821 139.25C235.721 142.45 229.771 144.05 222.971 144.05C216.471 144.05 210.921 142.75 206.321 140.15C201.821 137.45 198.421 134.15 196.121 130.25ZM241.721 105.5C241.721 97.8 239.671 91.6 235.571 86.9C231.571 82.2 226.321 79.85 219.821 79.85C215.621 79.85 211.871 80.85 208.571 82.85C205.271 84.85 202.621 87.75 200.621 91.55C198.621 95.35 197.621 100 197.621 105.5C197.621 110.9 198.621 115.5 200.621 119.3C202.621 123.1 205.271 126.05 208.571 128.15C211.871 130.15 215.621 131.15 219.821 131.15C226.321 131.15 231.571 128.8 235.571 124.1C239.671 119.4 241.721 113.2 241.721 105.5ZM321.445 68H334.345V130.7C334.345 139.5 332.245 147.05 328.045 153.35C323.845 159.65 317.795 164.5 309.895 167.9C302.095 171.3 292.645 173 281.545 173L279.295 160.55C292.695 160.25 302.845 157.55 309.745 152.45C316.645 147.45 320.095 140.2 320.095 130.7V129.95L321.745 130.1C319.345 133.9 315.895 137.2 311.395 140C306.995 142.7 301.495 144.05 294.895 144.05C288.195 144.05 282.245 142.45 277.045 139.25C271.945 136.05 267.945 131.55 265.045 125.75C262.245 119.95 260.845 113.2 260.845 105.5C260.845 97.8 262.245 91.05 265.045 85.25C267.945 79.45 271.945 74.95 277.045 71.75C282.245 68.55 288.195 66.95 294.895 66.95C298.995 66.95 302.645 67.5 305.845 68.6C309.145 69.7 311.995 71.2 314.395 73.1C316.795 74.9 318.795 76.95 320.395 79.25L321.445 68ZM275.995 105.5C275.995 113.2 277.995 119.4 281.995 124.1C286.095 128.8 291.545 131.15 298.345 131.15C302.345 131.15 305.995 130.15 309.295 128.15C312.595 126.05 315.195 123.1 317.095 119.3C319.095 115.4 320.095 110.8 320.095 105.5C320.095 100.1 319.095 95.5 317.095 91.7C315.195 87.9 312.545 85 309.145 83C305.845 80.9 302.245 79.85 298.345 79.85C291.545 79.85 286.095 82.2 281.995 86.9C277.995 91.6 275.995 97.8 275.995 105.5ZM378.822 144.05C371.622 144.05 365.272 142.45 359.772 139.25C354.272 135.95 349.972 131.45 346.872 125.75C343.872 120.05 342.372 113.4 342.372 105.8C342.372 98.1 343.922 91.35 347.022 85.55C350.122 79.75 354.422 75.2 359.922 71.9C365.422 68.6 371.822 66.95 379.122 66.95C386.822 66.95 393.572 68.75 399.372 72.35C405.272 75.95 409.522 80.8 412.122 86.9L399.372 91.4C397.872 87.9 395.322 85.1 391.722 83C388.222 80.9 384.222 79.85 379.722 79.85C375.122 79.85 371.172 80.95 367.872 83.15C364.572 85.25 362.022 88.25 360.222 92.15C358.422 95.95 357.522 100.45 357.522 105.65C357.522 113.45 359.522 119.65 363.522 124.25C367.522 128.85 372.922 131.15 379.722 131.15C384.222 131.15 388.222 130.15 391.722 128.15C395.322 126.15 398.022 123.4 399.822 119.9L412.422 124.4C409.622 130.4 405.222 135.2 399.222 138.8C393.222 142.3 386.422 144.05 378.822 144.05ZM453.482 144.05C446.382 144.05 439.982 142.5 434.282 139.4C428.682 136.2 424.282 131.75 421.082 126.05C417.882 120.25 416.282 113.45 416.282 105.65C416.282 97.75 417.932 90.9 421.232 85.1C424.532 79.3 429.032 74.85 434.732 71.75C440.432 68.55 446.832 66.95 453.932 66.95C461.032 66.95 467.432 68.55 473.132 71.75C478.932 74.85 483.482 79.3 486.782 85.1C490.082 90.8 491.732 97.55 491.732 105.35C491.732 113.25 490.032 120.1 486.632 125.9C483.332 131.7 478.782 136.2 472.982 139.4C467.182 142.5 460.682 144.05 453.482 144.05ZM453.332 131.15C457.332 131.15 461.082 130.25 464.582 128.45C468.082 126.55 470.932 123.7 473.132 119.9C475.432 116.1 476.582 111.25 476.582 105.35C476.582 99.55 475.482 94.8 473.282 91.1C471.182 87.3 468.382 84.5 464.882 82.7C461.382 80.8 457.632 79.85 453.632 79.85C449.732 79.85 446.082 80.8 442.682 82.7C439.382 84.5 436.682 87.3 434.582 91.1C432.482 94.9 431.432 99.75 431.432 105.65C431.432 111.45 432.432 116.25 434.432 120.05C436.532 123.75 439.232 126.55 442.532 128.45C445.832 130.25 449.432 131.15 453.332 131.15ZM499.963 68H512.863L513.763 76.7C516.163 73.6 519.213 71.2 522.913 69.5C526.613 67.8 530.713 66.95 535.213 66.95C541.013 66.95 546.013 68.2 550.213 70.7C554.513 73.1 557.813 76.7 560.113 81.5C562.513 86.3 563.713 92.3 563.713 99.5V143H549.613V101.3C549.613 94.3 548.113 89 545.113 85.4C542.213 81.7 537.963 79.85 532.363 79.85C526.563 79.85 522.063 81.75 518.863 85.55C515.663 89.25 514.063 94.75 514.063 102.05V143H499.963V68ZM583.445 119.3C584.145 122.3 585.345 124.65 587.045 126.35C588.745 128.05 590.745 129.3 593.045 130.1C595.445 130.8 597.945 131.15 600.545 131.15C605.045 131.15 608.545 130.25 611.045 128.45C613.545 126.65 614.795 124.4 614.795 121.7C614.795 119.4 613.995 117.6 612.395 116.3C610.895 114.9 608.845 113.8 606.245 113C603.745 112.2 601.045 111.45 598.145 110.75C595.545 110.05 592.695 109.25 589.595 108.35C586.595 107.45 583.745 106.25 581.045 104.75C578.445 103.15 576.295 101.15 574.595 98.75C572.895 96.25 572.045 93.1 572.045 89.3C572.045 84.8 573.245 80.9 575.645 77.6C578.145 74.2 581.545 71.6 585.845 69.8C590.245 67.9 595.195 66.95 600.695 66.95C607.095 66.95 612.695 68.35 617.495 71.15C622.395 73.85 625.945 77.95 628.145 83.45L615.395 87.65C614.695 85.75 613.545 84.2 611.945 83C610.345 81.8 608.495 81 606.395 80.6C604.395 80.1 602.395 79.85 600.395 79.85C596.595 79.85 593.445 80.6 590.945 82.1C588.445 83.6 587.195 85.8 587.195 88.7C587.195 90.3 587.595 91.65 588.395 92.75C589.195 93.75 590.295 94.6 591.695 95.3C593.195 95.9 594.945 96.45 596.945 96.95C598.945 97.45 601.095 98 603.395 98.6C606.395 99.5 609.445 100.5 612.545 101.6C615.645 102.6 618.495 103.9 621.095 105.5C623.695 107.1 625.795 109.2 627.395 111.8C628.995 114.4 629.845 117.6 629.945 121.4C629.945 125.8 628.695 129.7 626.195 133.1C623.795 136.5 620.345 139.2 615.845 141.2C611.445 143.1 606.195 144.05 600.095 144.05C592.695 144.05 586.395 142.4 581.195 139.1C575.995 135.8 572.495 130.7 570.695 123.8L583.445 119.3ZM670.965 144.05C663.865 144.05 657.465 142.5 651.765 139.4C646.165 136.2 641.765 131.75 638.565 126.05C635.365 120.25 633.765 113.45 633.765 105.65C633.765 97.75 635.415 90.9 638.715 85.1C642.015 79.3 646.515 74.85 652.215 71.75C657.915 68.55 664.315 66.95 671.415 66.95C678.515 66.95 684.915 68.55 690.615 71.75C696.415 74.85 700.965 79.3 704.265 85.1C707.565 90.8 709.215 97.55 709.215 105.35C709.215 113.25 707.515 120.1 704.115 125.9C700.815 131.7 696.265 136.2 690.465 139.4C684.665 142.5 678.165 144.05 670.965 144.05ZM670.815 131.15C674.815 131.15 678.565 130.25 682.065 128.45C685.565 126.55 688.415 123.7 690.615 119.9C692.915 116.1 694.065 111.25 694.065 105.35C694.065 99.55 692.965 94.8 690.765 91.1C688.665 87.3 685.865 84.5 682.365 82.7C678.865 80.8 675.115 79.85 671.115 79.85C667.215 79.85 663.565 80.8 660.165 82.7C656.865 84.5 654.165 87.3 652.065 91.1C649.965 94.9 648.915 99.75 648.915 105.65C648.915 111.45 649.915 116.25 651.915 120.05C654.015 123.75 656.715 126.55 660.015 128.45C663.315 130.25 666.915 131.15 670.815 131.15ZM717.445 35H731.545V143H717.445V35ZM776.591 144.05C769.391 144.05 762.991 142.4 757.391 139.1C751.891 135.7 747.541 131.05 744.341 125.15C741.241 119.25 739.691 112.5 739.691 104.9C739.691 97.6 741.241 91.1 744.341 85.4C747.441 79.7 751.691 75.2 757.091 71.9C762.591 68.6 768.791 66.95 775.691 66.95C782.691 66.95 788.891 68.5 794.291 71.6C799.691 74.6 803.891 78.85 806.891 84.35C809.891 89.75 811.341 96 811.241 103.1C811.241 104.3 811.191 105.55 811.091 106.85C810.991 108.05 810.841 109.4 810.641 110.9H755.141C755.441 114.9 756.541 118.45 758.441 121.55C760.441 124.55 762.941 126.9 765.941 128.6C769.041 130.3 772.541 131.15 776.441 131.15C781.441 131.15 785.791 130.2 789.491 128.3C793.191 126.3 795.791 123.65 797.291 120.35L809.591 124.7C806.591 130.8 802.191 135.55 796.391 138.95C790.691 142.35 784.091 144.05 776.591 144.05ZM795.791 98.75C795.791 95.15 794.891 91.9 793.091 89C791.291 86.1 788.841 83.85 785.741 82.25C782.741 80.55 779.341 79.7 775.541 79.7C772.141 79.7 768.991 80.55 766.091 82.25C763.291 83.85 760.891 86.1 758.891 89C756.991 91.8 755.791 95.05 755.291 98.75H795.791Z" fill="white"/>
<path d="M125.031 42.7652C77.9462 36.2927 49.3588 47.6196 39.2691 76.7458C32.5426 96.1633 34.2242 115.581 44.3139 134.998C51.0404 147.943 47.6772 164.124 34.2242 183.542" stroke="white" stroke-width="12" stroke-linecap="round"/>
<path d="M84.6727 64.1244C125.031 54.4157 146.892 68.9788 150.256 107.814C151.601 130.467 138.148 136.94 109.897 127.231" stroke="white" stroke-width="12" stroke-linecap="round"/>
<path d="M72.565 101.989C77.0229 101.989 80.6368 98.5111 80.6368 94.2215C80.6368 89.9319 77.0229 86.4545 72.565 86.4545C68.1071 86.4545 64.4933 89.9319 64.4933 94.2215C64.4933 98.5111 68.1071 101.989 72.565 101.989Z" fill="white"/>
<path d="M58.7473 132.759C43.8711 140.415 16.5204 137.3 9 128.147" stroke="white" stroke-width="12" stroke-linecap="round"/>
</svg>
