<svg width="491" height="120" viewBox="0 0 491 120" fill="none" xmlns="http://www.w3.org/2000/svg">
  <!-- pgconsole full lockup: product icon + APK Protocol 600 wordmark outlines,
       tracking -0.025em; icon on its light->mid->deep diagonal, wordmark on the
       icon's mid->deep ramp (vertical, top->bottom) so it reads on any surface. -->
  <defs>
    <linearGradient id="gIcon" gradientUnits="userSpaceOnUse" x1="0" y1="0" x2="120" y2="120">
      <stop offset="0" stop-color="#8fb4ff"/><stop offset="0.5" stop-color="#2f63f0"/><stop offset="1" stop-color="#1e44c8"/>
    </linearGradient>
    <linearGradient id="gWord" gradientUnits="userSpaceOnUse" x1="0" y1="22.88" x2="0" y2="97.12">
      <stop offset="0" stop-color="#2f63f0"/><stop offset="1" stop-color="#1e44c8"/>
    </linearGradient>
  </defs>
  <g fill="url(#gIcon)">
    <path d="M45 45 L75 45 L75 21 Z"/>
    <path d="M45 45 L75 45 L75 21 Z" transform="rotate(90 60 60)"/>
    <path d="M45 45 L75 45 L75 21 Z" transform="rotate(180 60 60)"/>
    <path d="M45 45 L75 45 L75 21 Z" transform="rotate(270 60 60)"/>
  </g>
  <g fill="url(#gWord)">
    <path d="M117.72 95.84H126.76V74.4H127.0C129.88 79.2 135.48 80.96 139.72 80.96C151.88 80.96 158.36 71.03999999999999 158.36 59.28C158.36 47.519999999999996 151.88 37.6 139.72 37.6C135.48 37.6 129.88 39.36 127.0 44.16H126.76V38.64H117.72ZM137.72 73.44C129.8 73.44 126.52 66.4 126.52 59.28C126.52 51.92 129.8 45.04 137.72 45.04C145.8 45.04 148.92000000000002 51.92 148.92000000000002 59.28C148.92000000000002 66.4 145.8 73.44 137.72 73.44Z"/>
    <path d="M181.96 97.12C193.64000000000001 97.12 201.88 91.2 201.88 77.84V38.64H192.84V44.64H192.68C190.36 39.839999999999996 185.32000000000002 37.6 180.44 37.6C168.52 37.6 162.12 47.44 162.12 59.04C162.12 70.72 168.52 80.56 180.44 80.56C185.32000000000002 80.56 190.36 78.32 192.68 73.52H192.84V78.56C192.84 85.36 190.04000000000002 89.68 181.96 89.68C176.76000000000002 89.68 173.56 87.84 171.88 83.28H162.68C164.52 91.84 170.60000000000002 97.12 181.96 97.12ZM182.12 72.96C174.60000000000002 72.96 171.56 66.16 171.56 59.04C171.56 52.0 174.60000000000002 45.12 182.12 45.12C189.72 45.12 192.76000000000002 52.0 192.76000000000002 59.04C192.76000000000002 66.16 189.72 72.96 182.12 72.96Z"/>
    <path d="M227.40000000000003 80.96C237.00000000000003 80.96 244.44000000000003 75.52 246.44000000000003 65.68H237.48000000000002C236.04000000000002 70.8 232.28000000000003 73.44 227.40000000000003 73.44C220.68000000000004 73.44 216.44000000000003 68.56 216.44000000000003 59.28C216.44000000000003 50.08 220.84000000000003 44.88 227.16000000000003 44.88C231.96000000000004 44.88 235.64000000000001 47.68 237.08000000000004 53.28H246.12000000000003C243.96000000000004 43.68 237.16000000000003 37.6 227.08 37.6C214.68000000000004 37.6 207.24 46.48 207.24 59.28C207.24 72.08 214.68000000000004 80.96 227.40000000000003 80.96Z"/>
    <path d="M271.24 80.96C284.76 80.96 291.96000000000004 71.44 291.96000000000004 59.28C291.96000000000004 47.04 284.76 37.6 271.24 37.6C257.72 37.6 250.52 47.04 250.52 59.28C250.52 71.44 257.72 80.96 271.24 80.96ZM271.24 73.44C265.0 73.44 259.96000000000004 68.72 259.96000000000004 59.28C259.96000000000004 49.84 265.0 45.04 271.24 45.04C277.48 45.04 282.52000000000004 49.84 282.52000000000004 59.28C282.52000000000004 68.72 277.48 73.44 271.24 73.44Z"/>
    <path d="M306.20000000000005 38.64H297.56000000000006V80.0H306.6V57.68C306.6 50.64 310.28000000000003 45.199999999999996 317.56000000000006 45.199999999999996C322.36 45.199999999999996 325.00000000000006 48.32 325.00000000000006 53.04V80.0H334.04V52.56C334.04 43.76 330.44000000000005 37.6 319.8 37.6C313.96000000000004 37.6 309.32000000000005 40.0 306.44000000000005 45.519999999999996H306.20000000000005Z"/>
    <path d="M357.96000000000004 80.96C368.84000000000003 80.96 375.96000000000004 75.6 375.96000000000004 68.16C375.96000000000004 61.84 372.20000000000005 57.599999999999994 362.6 55.92L355.88000000000005 54.64C351.32000000000005 53.76 349.16 52.08 349.16 49.68C349.16 46.32 352.52000000000004 44.24 357.16 44.24C362.04 44.24 365.40000000000003 46.48 365.96000000000004 51.44H374.84000000000003C374.52000000000004 43.68 367.88000000000005 37.6 357.16 37.6C347.00000000000006 37.6 340.52000000000004 42.64 340.52000000000004 50.08C340.52000000000004 56.32 344.6 60.4 353.40000000000003 62.16L360.44000000000005 63.6C365.16 64.56 366.92 66.4 366.92 68.56C366.92 72.08 363.08000000000004 73.92 357.96000000000004 73.92C352.12 73.92 348.76000000000005 71.28 348.36 66.48H339.32000000000005C339.32000000000005 74.4 346.04 80.96 357.96000000000004 80.96Z"/>
    <path d="M400.04 80.96C413.56 80.96 420.76 71.44 420.76 59.28C420.76 47.04 413.56 37.6 400.04 37.6C386.52 37.6 379.32 47.04 379.32 59.28C379.32 71.44 386.52 80.96 400.04 80.96ZM400.04 73.44C393.8 73.44 388.76 68.72 388.76 59.28C388.76 49.84 393.8 45.04 400.04 45.04C406.28 45.04 411.32 49.84 411.32 59.28C411.32 68.72 406.28 73.44 400.04 73.44Z"/>
    <path d="M426.52 80.0H435.56V22.879999999999995H426.52Z"/>
    <path d="M461.64 80.96C471.24 80.96 478.28 75.92 480.44 66.56H471.47999999999996C469.96 70.88 466.44 73.52 461.64 73.52C455.0 73.52 451.24 69.03999999999999 450.52 61.84H480.84C480.91999999999996 61.120000000000005 480.91999999999996 59.84 480.91999999999996 59.28C480.91999999999996 46.16 473.71999999999997 37.6 461.24 37.6C448.84 37.6 441.4 46.48 441.4 59.28C441.4 72.0 449.0 80.96 461.64 80.96ZM450.68 55.120000000000005C451.79999999999995 48.72 455.64 44.8 461.32 44.8C466.84 44.8 470.76 48.32 471.64 55.120000000000005Z"/>
  </g>
</svg>
