<svg width="180" height="180" viewBox="0 0 180 180" fill="none" xmlns="http://www.w3.org/2000/svg">
<rect width="180" height="180" rx="6" fill="#FFFCAC"/>
<path d="M135.031 20.7652C87.9462 14.2927 59.3588 25.6196 49.2691 54.7458C42.5426 74.1633 44.2242 93.5808 54.3139 112.998C61.0404 125.943 57.6772 142.124 44.2242 161.542" stroke="#0A64C8" stroke-width="12" stroke-linecap="round"/>
<path d="M94.6727 42.1244C135.031 32.4157 156.892 46.9788 160.256 85.8138C161.601 108.467 148.148 114.94 119.897 105.231" stroke="#0A64C8" stroke-width="12" stroke-linecap="round"/>
<path d="M82.565 79.9885C87.0229 79.9885 90.6368 76.5111 90.6368 72.2215C90.6368 67.9319 87.0229 64.4545 82.565 64.4545C78.1071 64.4545 74.4933 67.9319 74.4933 72.2215C74.4933 76.5111 78.1071 79.9885 82.565 79.9885Z" fill="#0A64C8"/>
<path d="M68.7473 110.759C53.8711 118.415 26.5204 115.3 19 106.147" stroke="#0A64C8" stroke-width="12" stroke-linecap="round"/>
</svg>
